<?xml version="1.0" encoding="iso-8859-1"?>
<!-- Generator: Adobe Illustrator 24.0.1, SVG Export Plug-In . SVG Version: 6.00 Build 0)  -->
<svg version="1.1" id="Capa_1" xmlns="http://www.w3.org/2000/svg" xmlns:xlink="http://www.w3.org/1999/xlink" x="0px" y="0px"
	 viewBox="0 0 512 512" style="enable-background:new 0 0 512 512;" xml:space="preserve">
<g>
	<path d="M374.803,102.803c2.929-2.929,2.929-7.678,0-10.607c-2.929-2.929-7.678-2.929-10.606,0c-2.929,2.929-2.929,7.678,0,10.607
		C367.126,105.732,371.875,105.732,374.803,102.803z"/>
	<circle cx="337.68" cy="110.68" r="7.5"/>
	<circle cx="401.32" cy="174.32" r="7.5"/>
	<path d="M409.197,137.197c-2.929,2.929-2.929,7.678,0,10.607c2.929,2.929,7.678,2.929,10.606,0c2.929-2.929,2.929-7.678,0-10.607
		C416.875,134.268,412.126,134.268,409.197,137.197z"/>
	<circle cx="401.32" cy="110.68" r="7.5"/>
	<path d="M353.59,126.59l-72.425,72.425c-0.003,0.003-151.727,151.728-151.727,151.728c-6.911,6.911-8.353,17.228-4.375,25.589
		L2.197,499.197c-2.929,2.929-2.929,7.678,0,10.606c2.929,2.929,7.678,2.929,10.606,0l122.866-122.866
		c3.054,1.453,6.362,2.204,9.678,2.204c5.761,0,11.524-2.194,15.91-6.58l65.257-65.256c2.929-2.929,2.929-7.678,0-10.606
		c-2.929-2.93-7.678-2.929-10.606,0l-65.257,65.256c-2.925,2.924-7.683,2.924-10.606,0c-2.924-2.924-2.924-7.683,0-10.607
		l146.423-146.422l10.607,10.606l-59.953,59.953c-2.929,2.929-2.929,7.678,0,10.606c2.929,2.929,7.678,2.929,10.606,0l65.243-65.243
		c0.029-0.029,72.44-72.44,72.44-72.44c4.25-4.25,6.591-9.9,6.591-15.91c0-6.01-2.341-11.661-6.59-15.91
		C376.637,117.818,362.363,117.818,353.59,126.59z M374.803,147.803l-67.122,67.123l-10.607-10.606l67.124-67.123
		c2.924-2.924,7.681-2.924,10.606,0c1.416,1.417,2.196,3.3,2.196,5.303C377,144.503,376.22,146.386,374.803,147.803z"/>
	<path d="M494.711,44.623l16.528-33.831c1.405-2.877,0.829-6.331-1.436-8.595s-5.718-2.841-8.596-1.436l-33.831,16.527
		L433.546,0.761c-2.877-1.405-6.33-0.829-8.596,1.436c-2.265,2.265-2.841,5.718-1.436,8.595l16.528,33.831l-16.528,33.831
		c-1.405,2.877-0.829,6.331,1.436,8.595c2.266,2.265,5.719,2.841,8.596,1.436l33.831-16.527l33.831,16.527
		c1.049,0.512,2.174,0.761,3.29,0.761c1.946,0,3.866-0.757,5.306-2.197c2.265-2.265,2.841-5.718,1.436-8.595L494.711,44.623z
		 M479.625,47.915l8.555,17.511l-17.511-8.555c-1.039-0.507-2.165-0.761-3.292-0.761s-2.253,0.254-3.292,0.761l-17.511,8.555
		l8.555-17.511c1.015-2.077,1.015-4.507,0-6.584l-8.555-17.511l17.511,8.555c2.078,1.015,4.506,1.015,6.584,0l17.511-8.555
		l-8.555,17.511C478.61,43.408,478.61,45.838,479.625,47.915z"/>
	<path d="M229.197,87.049c2.265,2.265,5.718,2.841,8.595,1.436l33.831-16.527l33.831,16.527c1.049,0.512,2.174,0.761,3.29,0.761
		c1.946,0,3.866-0.757,5.306-2.197c2.265-2.265,2.841-5.718,1.436-8.595l-16.528-33.831l16.528-33.831
		c1.405-2.877,0.829-6.331-1.436-8.595c-2.266-2.265-5.718-2.841-8.596-1.436l-33.831,16.527L237.792,0.761
		c-2.878-1.405-6.331-0.829-8.595,1.436s-2.841,5.718-1.436,8.595l16.527,33.831l-16.527,33.831
		C226.356,81.332,226.932,84.785,229.197,87.049z M259.375,41.331L250.82,23.82l17.511,8.555c2.078,1.015,4.506,1.015,6.584,0
		l17.511-8.555l-8.555,17.511c-1.015,2.077-1.015,4.507,0,6.584l8.555,17.511l-17.511-8.555c-1.039-0.507-2.165-0.761-3.292-0.761
		s-2.253,0.254-3.292,0.761l-17.511,8.555l8.555-17.511C260.39,45.838,260.39,43.408,259.375,41.331z"/>
	<path d="M509.804,197.951c-2.265-2.265-5.718-2.841-8.596-1.436l-33.831,16.527l-33.831-16.527c-2.877-1.405-6.33-0.83-8.596,1.436
		c-2.265,2.265-2.841,5.718-1.436,8.595l16.528,33.831l-16.528,33.831c-1.405,2.877-0.829,6.331,1.436,8.595
		c2.266,2.265,5.719,2.841,8.596,1.436l33.831-16.527l33.831,16.527c1.049,0.512,2.174,0.761,3.29,0.761
		c1.946,0,3.866-0.757,5.306-2.197c2.265-2.265,2.841-5.718,1.436-8.595l-16.528-33.831l16.528-33.831
		C512.645,203.669,512.068,200.215,509.804,197.951z M479.625,243.669l8.555,17.511l-17.511-8.555
		c-1.039-0.507-2.165-0.761-3.292-0.761s-2.253,0.254-3.292,0.761l-17.511,8.555l8.555-17.511c1.015-2.077,1.015-4.507,0-6.584
		l-8.556-17.511l17.512,8.554c2.078,1.015,4.506,1.015,6.584,0l17.512-8.554l-8.556,17.511
		C478.61,239.162,478.61,241.592,479.625,243.669z"/>
	<path d="M384.5,45H377v-7.5c0-4.142-3.357-7.5-7.5-7.5s-7.5,3.358-7.5,7.5V45h-7.5c-4.143,0-7.5,3.358-7.5,7.5s3.357,7.5,7.5,7.5
		h7.5v7.5c0,4.142,3.357,7.5,7.5,7.5s7.5-3.358,7.5-7.5V60h7.5c4.143,0,7.5-3.358,7.5-7.5S388.643,45,384.5,45z"/>
	<path d="M459.5,120c-4.143,0-7.5,3.358-7.5,7.5v7.5h-7.5c-4.143,0-7.5,3.358-7.5,7.5s3.357,7.5,7.5,7.5h7.5v7.5
		c0,4.142,3.357,7.5,7.5,7.5s7.5-3.358,7.5-7.5V150h7.5c4.143,0,7.5-3.358,7.5-7.5s-3.357-7.5-7.5-7.5H467v-7.5
		C467,123.358,463.643,120,459.5,120z"/>
</g>
<g>
</g>
<g>
</g>
<g>
</g>
<g>
</g>
<g>
</g>
<g>
</g>
<g>
</g>
<g>
</g>
<g>
</g>
<g>
</g>
<g>
</g>
<g>
</g>
<g>
</g>
<g>
</g>
<g>
</g>
</svg>
