<?xml version="1.0" encoding="iso-8859-1"?>
<!-- Generator: Adobe Illustrator 24.0.1, SVG Export Plug-In . SVG Version: 6.00 Build 0)  -->
<svg version="1.1" id="Capa_1" xmlns="http://www.w3.org/2000/svg" xmlns:xlink="http://www.w3.org/1999/xlink" x="0px" y="0px"
	 viewBox="0 0 512 512" style="enable-background:new 0 0 512 512;" xml:space="preserve">
<g>
	<path style="fill:#4CBEFF;" d="M241,504.5c-12.427,0-22.5-10.073-22.5-22.5c0-29.388,10.398-45.056,18.753-57.645
		c6.772-10.204,11.247-16.945,11.247-32.76c0-15.813-4.475-22.554-11.247-32.758c-8.354-12.589-18.753-28.255-18.753-57.643
		c0-29.387,10.398-45.054,18.754-57.642c6.772-10.204,11.246-16.944,11.246-32.757s-4.474-22.553-11.246-32.757
		c-8.355-12.588-18.754-28.255-18.754-57.642s10.398-45.054,18.754-57.642C244.026,52.553,248.5,45.813,248.5,30
		c0-12.427,10.073-22.5,22.5-22.5s22.5,10.073,22.5,22.5c0,29.387-10.398,45.054-18.754,57.642
		c-6.772,10.204-11.246,16.944-11.246,32.757s4.474,22.553,11.246,32.757c8.355,12.588,18.754,28.255,18.754,57.642
		s-10.398,45.054-18.754,57.642c-6.772,10.204-11.246,16.944-11.246,32.757s4.475,22.554,11.247,32.758
		c8.354,12.589,18.753,28.255,18.753,57.643s-10.398,45.056-18.753,57.645C267.975,459.444,263.5,466.186,263.5,482
		C263.5,494.427,253.427,504.5,241,504.5z"/>
	<path style="fill:#FF1A69;" d="M452,504.5c-12.427,0-22.5-10.073-22.5-22.5c0-29.388,10.398-45.056,18.753-57.645
		c6.772-10.204,11.247-16.945,11.247-32.76c0-15.813-4.475-22.554-11.247-32.758c-8.354-12.589-18.753-28.255-18.753-57.643
		c0-29.387,10.398-45.054,18.754-57.642c6.772-10.204,11.246-16.944,11.246-32.757s-4.474-22.553-11.246-32.757
		c-8.355-12.588-18.754-28.255-18.754-57.642s10.398-45.054,18.754-57.642C455.026,52.553,459.5,45.813,459.5,30
		c0-12.427,10.073-22.5,22.5-22.5s22.5,10.073,22.5,22.5c0,29.387-10.398,45.054-18.754,57.642
		c-6.772,10.204-11.246,16.944-11.246,32.757s4.474,22.553,11.246,32.757c8.355,12.588,18.754,28.255,18.754,57.642
		s-10.398,45.054-18.754,57.642c-6.772,10.204-11.246,16.944-11.246,32.757s4.475,22.554,11.247,32.758
		c8.354,12.589,18.753,28.255,18.753,57.643s-10.398,45.056-18.753,57.645C478.975,459.444,474.5,466.186,474.5,482
		C474.5,494.427,464.427,504.5,452,504.5z"/>
	<path style="fill:#FFBE46;" d="M30,504.5c-12.427,0-22.5-10.073-22.5-22.5c0-29.388,10.398-45.056,18.753-57.645
		c6.772-10.204,11.247-16.945,11.247-32.76c0-15.813-4.475-22.554-11.247-32.758C17.898,346.249,7.5,330.583,7.5,301.195
		c0-29.387,10.398-45.054,18.754-57.642C33.026,233.35,37.5,226.609,37.5,210.797s-4.474-22.553-11.246-32.757
		C17.898,165.452,7.5,149.785,7.5,120.398s10.398-45.054,18.754-57.642C33.026,52.553,37.5,45.813,37.5,30
		C37.5,17.573,47.573,7.5,60,7.5S82.5,17.573,82.5,30c0,29.387-10.398,45.054-18.754,57.642
		C56.974,97.846,52.5,104.586,52.5,120.398s4.474,22.553,11.246,32.757C72.102,165.743,82.5,181.41,82.5,210.797
		s-10.398,45.054-18.754,57.642C56.974,278.643,52.5,285.383,52.5,301.195s4.475,22.554,11.247,32.758
		c8.354,12.589,18.753,28.255,18.753,57.643s-10.398,45.056-18.753,57.645C56.975,459.444,52.5,466.186,52.5,482
		C52.5,494.427,42.427,504.5,30,504.5z"/>
	<circle style="fill:#FF4377;" cx="165.5" cy="396.096" r="15"/>
	<circle style="fill:#FF4377;" cx="165.5" cy="22.5" r="15"/>
	<circle style="fill:#FFBE46;" cx="165.5" cy="209.297" r="15"/>
	<circle style="fill:#4CBEFF;" cx="135.5" cy="115.898" r="15"/>
	<circle style="fill:#FF8B2A;" cx="135.5" cy="302.694" r="15"/>
	<circle style="fill:#4CBEFF;" cx="135.5" cy="489.5" r="15"/>
	<circle style="fill:#FFBE46;" cx="376.5" cy="396.096" r="15"/>
	<circle style="fill:#FFBE46;" cx="376.5" cy="22.5" r="15"/>
	<circle style="fill:#FF4377;" cx="376.5" cy="209.297" r="15"/>
	<circle style="fill:#FF8B2A;" cx="346.5" cy="115.898" r="15"/>
	<circle style="fill:#9DCB3B;" cx="346.5" cy="302.694" r="15"/>
	<circle style="fill:#FF8B2A;" cx="346.5" cy="489.5" r="15"/>
	<path d="M301,30c0-16.542-13.458-30-30-30s-30,13.458-30,30c0,13.55-3.55,18.898-9.995,28.609
		C222.563,71.328,211,88.748,211,120.398s11.563,49.07,20.005,61.789c6.444,9.711,9.995,15.06,9.995,28.609
		s-3.55,18.898-9.995,28.609C222.563,252.125,211,269.545,211,301.195c0,31.647,11.561,49.066,20.005,61.791
		c6.445,9.711,9.995,15.06,9.995,28.609c0,13.552-3.55,18.9-9.997,28.613C222.562,432.93,211,450.351,211,482
		c0,16.542,13.458,30,30,30s30-13.458,30-30c0-13.552,3.55-18.9,9.997-28.613C289.438,440.666,301,423.245,301,391.596
		c0-31.647-11.561-49.066-20.005-61.791c-6.445-9.711-9.995-15.06-9.995-28.609s3.55-18.898,9.995-28.609
		C289.438,259.867,301,242.447,301,210.797s-11.563-49.07-20.005-61.789c-6.444-9.711-9.995-15.06-9.995-28.609
		s3.55-18.898,9.995-28.609C289.438,79.07,301,61.65,301,30z M268.498,157.303c8.204,12.36,17.502,26.369,17.502,53.494
		s-9.298,41.134-17.503,53.494C261.515,274.812,256,283.12,256,301.195c0,18.074,5.515,26.384,12.5,36.908
		c8.203,12.36,17.5,26.369,17.5,53.492c0,27.125-9.298,41.135-17.503,53.498C261.515,455.614,256,463.924,256,482
		c0,8.271-6.729,15-15,15s-15-6.729-15-15c0-27.125,9.298-41.135,17.503-53.498c6.982-10.521,12.497-18.83,12.497-36.906
		c0-18.074-5.515-26.384-12.5-36.908c-8.203-12.36-17.5-26.369-17.5-53.492c0-27.125,9.298-41.134,17.503-53.494
		C250.485,237.181,256,228.872,256,210.797s-5.515-26.384-12.498-36.904C235.298,161.532,226,147.523,226,120.398
		s9.298-41.134,17.503-53.494C250.485,56.384,256,48.074,256,30c0-8.271,6.729-15,15-15s15,6.729,15,15
		c0,27.125-9.298,41.134-17.503,53.494C261.515,94.015,256,102.324,256,120.398C256,138.474,261.515,146.782,268.498,157.303z"/>
	<path d="M512,210.797c0-31.65-11.563-49.07-20.005-61.789c-6.444-9.711-9.995-15.06-9.995-28.609s3.55-18.898,9.995-28.609
		C500.438,79.07,512,61.65,512,30c0-16.542-13.458-30-30-30s-30,13.458-30,30c0,13.55-3.55,18.898-9.995,28.609
		C433.563,71.328,422,88.748,422,120.398s11.563,49.07,20.005,61.789c6.444,9.711,9.995,15.06,9.995,28.609
		s-3.55,18.898-9.995,28.609C433.563,252.125,422,269.545,422,301.195c0,31.647,11.561,49.066,20.005,61.791
		c6.445,9.711,9.995,15.06,9.995,28.609c0,13.552-3.55,18.9-9.997,28.613C433.562,432.93,422,450.351,422,482
		c0,16.542,13.458,30,30,30s30-13.458,30-30c0-13.552,3.55-18.9,9.997-28.613C500.438,440.666,512,423.245,512,391.596
		c0-31.647-11.561-49.066-20.005-61.791c-6.445-9.711-9.995-15.06-9.995-28.609s3.55-18.898,9.995-28.609
		C500.438,259.867,512,242.447,512,210.797z M479.5,338.104c8.203,12.36,17.5,26.369,17.5,53.492
		c0,27.125-9.298,41.135-17.503,53.498C472.515,455.614,467,463.924,467,482c0,8.271-6.729,15-15,15s-15-6.729-15-15
		c0-27.125,9.298-41.135,17.503-53.498c6.982-10.521,12.497-18.83,12.497-36.906c0-18.074-5.515-26.384-12.5-36.908
		c-8.203-12.36-17.5-26.369-17.5-53.492c0-27.125,9.298-41.134,17.503-53.494C461.485,237.181,467,228.872,467,210.797
		s-5.515-26.384-12.498-36.904C446.298,161.532,437,147.523,437,120.398s9.298-41.134,17.503-53.494
		C461.485,56.384,467,48.074,467,30c0-8.271,6.729-15,15-15s15,6.729,15,15c0,27.125-9.298,41.134-17.503,53.494
		C472.515,94.015,467,102.324,467,120.398c0,18.075,5.515,26.384,12.498,36.904c8.204,12.36,17.502,26.369,17.502,53.494
		s-9.298,41.134-17.503,53.494C472.515,274.812,467,283.12,467,301.195C467,319.27,472.515,327.579,479.5,338.104z"/>
	<path d="M90,30C90,13.458,76.542,0,60,0S30,13.458,30,30c0,13.55-3.55,18.898-9.995,28.609C11.563,71.328,0,88.748,0,120.398
		s11.563,49.07,20.005,61.789C26.45,191.898,30,197.247,30,210.797s-3.55,18.898-9.995,28.609C11.563,252.125,0,269.545,0,301.195
		c0,31.647,11.561,49.066,20.005,61.791C26.45,372.697,30,378.046,30,391.596c0,13.552-3.55,18.9-9.997,28.613
		C11.562,432.93,0,450.351,0,482c0,16.542,13.458,30,30,30s30-13.458,30-30c0-13.552,3.55-18.9,9.997-28.613
		C78.438,440.666,90,423.245,90,391.596c0-31.647-11.561-49.066-20.005-61.791C63.55,320.094,60,314.745,60,301.195
		s3.55-18.898,9.995-28.609C78.438,259.867,90,242.447,90,210.797c0-12.949-1.879-24.45-5.745-35.16
		c-1.407-3.896-5.706-5.917-9.601-4.509c-3.896,1.406-5.915,5.705-4.508,9.601c3.266,9.05,4.854,18.885,4.854,30.068
		c0,27.125-9.298,41.134-17.503,53.494C50.515,274.812,45,283.12,45,301.195c0,18.074,5.515,26.384,12.5,36.908
		c8.203,12.36,17.5,26.369,17.5,53.492c0,27.125-9.298,41.135-17.503,53.498C50.515,455.614,45,463.924,45,482
		c0,8.271-6.729,15-15,15s-15-6.729-15-15c0-27.125,9.298-41.135,17.503-53.498C39.485,417.981,45,409.672,45,391.596
		c0-18.074-5.515-26.384-12.5-36.908c-8.203-12.36-17.5-26.369-17.5-53.492c0-27.125,9.298-41.134,17.503-53.494
		C39.485,237.181,45,228.872,45,210.797s-5.515-26.384-12.498-36.904C24.298,161.532,15,147.523,15,120.398
		s9.298-41.134,17.503-53.494C39.485,56.384,45,48.074,45,30c0-8.271,6.729-15,15-15s15,6.729,15,15
		c0,27.125-9.298,41.134-17.503,53.494C50.515,94.015,45,102.324,45,120.398c0,16.689,4.699,25.098,11.338,35.154
		c2.282,3.457,6.935,4.408,10.391,2.127c3.457-2.281,4.409-6.934,2.127-10.391C63.2,138.721,60,133.247,60,120.398
		c0-13.55,3.55-18.898,9.995-28.609C78.438,79.07,90,61.65,90,30z"/>
	<path d="M135.5,138.398c12.407,0,22.5-10.094,22.5-22.5s-10.093-22.5-22.5-22.5s-22.5,10.094-22.5,22.5
		S123.093,138.398,135.5,138.398z M135.5,108.398c4.136,0,7.5,3.364,7.5,7.5s-3.364,7.5-7.5,7.5s-7.5-3.364-7.5-7.5
		S131.364,108.398,135.5,108.398z"/>
	<path d="M135.5,325.194c12.407,0,22.5-10.094,22.5-22.5s-10.093-22.5-22.5-22.5s-22.5,10.094-22.5,22.5
		S123.093,325.194,135.5,325.194z M135.5,295.194c4.136,0,7.5,3.364,7.5,7.5s-3.364,7.5-7.5,7.5s-7.5-3.364-7.5-7.5
		S131.364,295.194,135.5,295.194z"/>
	<path d="M165.5,373.596c-12.407,0-22.5,10.094-22.5,22.5s10.093,22.5,22.5,22.5s22.5-10.094,22.5-22.5
		S177.907,373.596,165.5,373.596z M165.5,403.596c-4.136,0-7.5-3.364-7.5-7.5s3.364-7.5,7.5-7.5s7.5,3.364,7.5,7.5
		S169.636,403.596,165.5,403.596z"/>
	<path d="M165.5,0C153.093,0,143,10.094,143,22.5S153.093,45,165.5,45S188,34.906,188,22.5S177.907,0,165.5,0z M165.5,30
		c-4.136,0-7.5-3.364-7.5-7.5s3.364-7.5,7.5-7.5s7.5,3.364,7.5,7.5S169.636,30,165.5,30z"/>
	<path d="M135.5,467c-12.407,0-22.5,10.094-22.5,22.5s10.093,22.5,22.5,22.5s22.5-10.094,22.5-22.5S147.907,467,135.5,467z
		 M135.5,497c-4.136,0-7.5-3.364-7.5-7.5s3.364-7.5,7.5-7.5s7.5,3.364,7.5,7.5S139.636,497,135.5,497z"/>
	<path d="M165.5,186.797c-12.407,0-22.5,10.094-22.5,22.5s10.093,22.5,22.5,22.5s22.5-10.094,22.5-22.5
		S177.907,186.797,165.5,186.797z M165.5,216.797c-4.136,0-7.5-3.364-7.5-7.5s3.364-7.5,7.5-7.5s7.5,3.364,7.5,7.5
		S169.636,216.797,165.5,216.797z"/>
	<path d="M346.5,138.398c12.407,0,22.5-10.094,22.5-22.5s-10.093-22.5-22.5-22.5s-22.5,10.094-22.5,22.5
		S334.093,138.398,346.5,138.398z M346.5,108.398c4.136,0,7.5,3.364,7.5,7.5s-3.364,7.5-7.5,7.5s-7.5-3.364-7.5-7.5
		S342.364,108.398,346.5,108.398z"/>
	<path d="M346.5,325.194c12.407,0,22.5-10.094,22.5-22.5s-10.093-22.5-22.5-22.5s-22.5,10.094-22.5,22.5
		S334.093,325.194,346.5,325.194z M346.5,295.194c4.136,0,7.5,3.364,7.5,7.5s-3.364,7.5-7.5,7.5s-7.5-3.364-7.5-7.5
		S342.364,295.194,346.5,295.194z"/>
	<path d="M376.5,373.596c-12.407,0-22.5,10.094-22.5,22.5s10.093,22.5,22.5,22.5s22.5-10.094,22.5-22.5
		S388.907,373.596,376.5,373.596z M376.5,403.596c-4.136,0-7.5-3.364-7.5-7.5s3.364-7.5,7.5-7.5s7.5,3.364,7.5,7.5
		S380.636,403.596,376.5,403.596z"/>
	<path d="M376.5,0C364.093,0,354,10.094,354,22.5S364.093,45,376.5,45S399,34.906,399,22.5S388.907,0,376.5,0z M376.5,30
		c-4.136,0-7.5-3.364-7.5-7.5s3.364-7.5,7.5-7.5s7.5,3.364,7.5,7.5S380.636,30,376.5,30z"/>
	<path d="M346.5,467c-12.407,0-22.5,10.094-22.5,22.5s10.093,22.5,22.5,22.5s22.5-10.094,22.5-22.5S358.907,467,346.5,467z
		 M346.5,497c-4.136,0-7.5-3.364-7.5-7.5s3.364-7.5,7.5-7.5s7.5,3.364,7.5,7.5S350.636,497,346.5,497z"/>
	<path d="M376.5,186.797c-12.407,0-22.5,10.094-22.5,22.5s10.093,22.5,22.5,22.5s22.5-10.094,22.5-22.5
		S388.907,186.797,376.5,186.797z M376.5,216.797c-4.136,0-7.5-3.364-7.5-7.5s3.364-7.5,7.5-7.5s7.5,3.364,7.5,7.5
		S380.636,216.797,376.5,216.797z"/>
</g>
<g>
</g>
<g>
</g>
<g>
</g>
<g>
</g>
<g>
</g>
<g>
</g>
<g>
</g>
<g>
</g>
<g>
</g>
<g>
</g>
<g>
</g>
<g>
</g>
<g>
</g>
<g>
</g>
<g>
</g>
</svg>
