<?xml version="1.0" encoding="iso-8859-1"?>
<!-- Generator: Adobe Illustrator 24.0.1, SVG Export Plug-In . SVG Version: 6.00 Build 0)  -->
<svg version="1.1" id="Capa_1" xmlns="http://www.w3.org/2000/svg" xmlns:xlink="http://www.w3.org/1999/xlink" x="0px" y="0px"
	 viewBox="0 0 497 497" style="enable-background:new 0 0 497 497;" xml:space="preserve">
<g>
	<rect x="233.5" y="318.5" style="fill:#97E4FD;" width="30" height="164"/>
	<path style="fill:#97E4FD;" d="M308.5,165l-45,255.749c42.565-7.142,75-44.154,75-88.749c0-73.5,45-73.5,45-147L308.5,165z"/>
	<path style="fill:#BCF7FC;" d="M113.5,185c0,73.5,45,73.5,45,147c0,49.706,40.294,90,90,90c5.111,0,10.121-0.433,15-1.251
		c25.539-7.142,45-44.154,45-88.749V165L113.5,185z"/>
	<path style="fill:#FF4377;" d="M248.5,170v222c33.084,0,60-26.916,60-60c0-45.204,14.923-69.579,26.915-89.165
		c10.5-17.148,18.085-29.539,18.085-57.835L248.5,170z"/>
	<path style="fill:#FF6C84;" d="M278.5,332c0-53.658,18.107-83.234,31.329-104.829C319.498,211.378,323.5,204.842,323.5,185l-75-25
		l-105,25c0,28.296,7.586,40.687,18.085,57.835C173.577,262.421,188.5,286.796,188.5,332c0,33.084,26.916,60,60,60
		C265.042,392,278.5,365.084,278.5,332z"/>
	<path style="fill:#FF364E;" d="M258.5,0c-3.644,0-7.058,0.979-10,2.682L238.5,20l10,30c16.569,0,30-13.432,30-30
		C278.5,8.954,269.546,0,258.5,0z"/>
	<path style="fill:#FF5233;" d="M238.5,0c-11.046,0-20,8.954-20,20c0,16.568,13.431,30,30,30V2.682C245.558,0.979,242.144,0,238.5,0
		z"/>
	<path style="fill:#FFBE9F;" d="M308.5,80h-30v60l60-30C338.5,93.431,325.069,80,308.5,80z"/>
	<path style="fill:#FFE7AD;" d="M278.5,80h-90c-16.569,0-30,13.431-30,30l82.5,30l67.5-30C308.5,93.431,295.069,80,278.5,80z"/>
	<path style="fill:#FFBE9F;" d="M338.5,110h-30v75l75-30C383.5,130.147,363.353,110,338.5,110z"/>
	<path style="fill:#FFE7AD;" d="M308.5,110h-150c-24.853,0-45,20.147-45,45l130,30l110-30C353.5,130.147,333.353,110,308.5,110z"/>
	<path style="fill:#71D1FE;" d="M398.5,155h-30v30h30c8.284,0,15-6.716,15-15S406.784,155,398.5,155z"/>
	<path style="fill:#97E4FD;" d="M383.5,170c0-8.284-6.716-15-15-15h-270c-8.284,0-15,6.716-15,15s6.716,15,15,15h270
		C376.784,185,383.5,178.284,383.5,170z"/>
	<path style="fill:#FFE7AD;" d="M293.326,155l-45.072-30l-44.581,30c16.597,0,30.04,13.476,30,30.072L233.5,257
		c0,8.284,6.716,15,15,15s15-6.716,15-15l-0.173-71.928C263.287,168.476,276.73,155,293.326,155z"/>
	<path style="fill:#BCF7FC;" d="M248.5,444.5c-52.5,0-52.5,45-105,45h165C308.5,489.5,278.5,444.5,248.5,444.5z"/>
	<path style="fill:#97E4FD;" d="M248.5,444.5c30,0,30,45,60,45h45C301,489.5,301,444.5,248.5,444.5z"/>
	<path style="fill:#97E4FD;" d="M383.5,497h-270c-4.143,0-7.5-3.357-7.5-7.5s3.357-7.5,7.5-7.5h270c4.143,0,7.5,3.357,7.5,7.5
		S387.643,497,383.5,497z"/>
</g>
<g>
</g>
<g>
</g>
<g>
</g>
<g>
</g>
<g>
</g>
<g>
</g>
<g>
</g>
<g>
</g>
<g>
</g>
<g>
</g>
<g>
</g>
<g>
</g>
<g>
</g>
<g>
</g>
<g>
</g>
</svg>
